<?xml version="1.0" encoding="utf-8"?>
<!-- Generator: Adobe Illustrator 25.4.1, SVG Export Plug-In . SVG Version: 6.00 Build 0)  -->
<svg version="1.1" id="Capa_1" xmlns="http://www.w3.org/2000/svg" xmlns:xlink="http://www.w3.org/1999/xlink" x="0px" y="0px"
	 viewBox="0 0 297.83 293.89" style="enable-background:new 0 0 297.83 293.89;" xml:space="preserve">
<style type="text/css">
	.st0{fill:#594E42;}
	.st1{fill:#D8BDA5;}
	.st2{fill:#D48134;}
	.st3{fill:#EED7C2;}
	.st4{fill:#D88741;}
	.st5{fill:#F7F8F9;}
</style>
<path class="st0" d="M171.63,255.13c-17.5-0.34-29.06-8-36.95-21.63c-16.38-28.31-32.73-56.64-49.07-84.97
	c-2.59-4.49-1.81-8.49,1.95-10.64c3.54-2.03,7.22-0.74,9.89,3.82c8.52,14.61,16.93,29.28,25.39,43.93
	c7.96,13.79,15.83,27.62,23.89,41.34c7.57,12.9,21.4,17.83,33.79,12.24c5.25-2.37,8.5-6.74,11.26-11.55
	c25.18-43.91,50.36-87.82,75.54-131.73c1.46-2.55,3-4.88,6.46-4.83c5.52,0.08,8.73,5.15,6.02,10.25
	c-3.96,7.46-8.33,14.71-12.53,22.05c-21.65,37.76-43.27,75.54-64.98,113.27C195.2,248.95,184.13,254.57,171.63,255.13z"/>
<path class="st1" d="M149.89,45.55c-17.44,0-34.9,0.38-52.33-0.11c-15.07-0.43-30.12-0.28-45.18-0.53
	c-4.84-0.08-8.05-2.67-8.08-6.43c-0.03-4.18,3.31-7.02,8.46-7.02c22.8,0,45.61-0.3,68.41,0.16c26.96,0.54,53.92,0.35,80.87,0.53
	c7.62,0.05,15.09,0.52,22.09,4.16c11.79,6.14,17.76,16.1,19.87,28.85c2.02,12.14-2.85,22.32-8.77,32.31
	c-15.77,26.64-31.45,53.34-47.16,80.02c-1.59,2.7-3.92,4.27-7.02,4.08c-2.71-0.16-4.53-1.91-5.52-4.42
	c-0.96-2.44-0.12-4.64,1.1-6.74c6.75-11.61,13.49-23.23,20.28-34.82c9.55-16.31,19.18-32.58,28.71-48.9
	c5.55-9.5,7.07-19.23,1.49-29.36c-4.88-8.85-13.06-11.5-22.28-11.61c-18.31-0.22-36.63-0.06-54.95-0.06
	C149.89,45.62,149.89,45.59,149.89,45.55z"/>
<path class="st2" d="M17.08,106.54c-0.41-19.81,15.95-37.1,36.74-38.35c22.9-1.38,45.85-0.7,68.78-1.08
	c11.21-0.19,22.43-0.31,33.64-0.56c3.31-0.07,5.93,1,7.46,3.94c2.19,4.2-0.83,9.11-5.99,9.66c-2.97,0.32-5.97,0.33-8.96,0.36
	c-29.29,0.29-58.57,0.65-87.86,0.77c-10.45,0.04-19.27,2.96-25.76,11.62c-5.6,7.48-6.12,17.01-0.82,25.89
	c22.72,38.04,45.5,76.05,68.25,114.07c3.58,5.98,7.19,11.94,10.73,17.94c2.53,4.29,1.97,8.57-1.26,10.59
	c-3.67,2.28-7.5,1.11-10.25-3.46c-16.68-27.73-33.29-55.5-49.93-83.26c-9.92-16.55-19.84-33.09-29.76-49.64
	C18.61,119.23,16.86,112.96,17.08,106.54z"/>
<path class="st3" d="M160.04,141.79c-2.48,4.85-5.43,9.46-8.12,14.2c-1.05,1.85-2.5,3.04-4.65,3.28c-0.31-1.51-0.97-2.45-2.78-2.15
	c-3.23,0.54-5.52-0.93-7.17-3.61c-5.47-8.91-10.52-18.05-15.8-27.06c-0.57-0.98-1.03-2.02-0.37-3.17c2.66-3.94,6.26-5.7,11.1-5.55
	c7.47,0.23,14.95,0.03,22.43,0.07c4.28,0.02,7.78,1.53,9.99,5.38c0.81,1.71-8.53,17.92-12.32,24.64c-0.69,1.23-1.87,2.34-1.35,4.39
	c2.04-1.84,2.89-4.18,4.08-6.22c2.38-4.08,4.72-8.19,7.04-12.31C162.82,132.45,161.88,138.2,160.04,141.79z"/>
<path class="st4" d="M122.97,124.04c5.28,9.14,10.57,18.26,15.82,27.41c1.98,3.45,4.14,6.39,8.81,4.37
	c1.04-0.45,1.62,0.34,2.18,0.99c1.08,1.24-0.64,1.6-0.81,2.46c-6.06,1.93-9.37,0.71-12.49-4.7c-5.71-9.91-11.1-20.01-17.16-29.69
	c-4.45-7.11,0.14-14.81,8.36-14.43c11.68,0.54,23.4,0.1,35.1,0.15c7.7,0.03,11.43,6.18,7.94,12.99c-1.25,2.43-2.55,4.82-3.83,7.23
	c-4.02,6.84-8.01,13.71-12.09,20.52c-0.64,1.07-0.81,3.27-3.08,1.89c-2.01-1.22-0.44-2.38,0.12-3.4c4.76-8.57,9.58-17.1,14.39-25.64
	c-0.04-0.88,0.14-1.72,0.36-2.57c1.14-4.57-0.25-6.65-5.04-6.74c-11.19-0.21-22.39-0.23-33.57,0.01c-4.96,0.11-6.35,2.22-5.18,6.97
	C122.97,122.57,123.11,123.29,122.97,124.04z"/>
<path class="st5" d="M122.97,124.04c-1.48-2.33-3.14-4.64-1.41-7.54c1.68-2.83,4.51-2.72,7.27-2.72
	c10.71-0.01,21.41,0.02,32.12-0.02c2.82-0.01,5.65-0.03,7.09,2.95c1.39,2.88,0.01,5.27-1.81,7.46c-2.77-4.06-6.56-5.61-11.49-5.37
	c-5.96,0.28-11.96,0.39-17.9-0.03C131.23,118.38,126.56,119.56,122.97,124.04z"/>
<polygon class="st3" points="151.01,152.2 166.23,124.17 162.73,120.66 146.15,156.31 "/>
</svg>
